<svg xmlns="http://www.w3.org/2000/svg" viewBox="0 0 720 428" width="100%"
     role="img" font-family="-apple-system,BlinkMacSystemFont,Segoe UI,Helvetica,Arial,sans-serif"
     aria-label="Accuracy rises from 0.71 to 0.98 as the prediction
     strength cutoff rises, while the share of comparisons still answered falls from
     100 percent to 1 percent.">
  <line x1="66" y1="366.0" x2="654" y2="366.0" stroke="#e3e7ec" stroke-width="1"/><line x1="66" y1="314.0" x2="654" y2="314.0" stroke="#e3e7ec" stroke-width="1"/><line x1="66" y1="262.0" x2="654" y2="262.0" stroke="#e3e7ec" stroke-width="1"/><line x1="66" y1="210.0" x2="654" y2="210.0" stroke="#e3e7ec" stroke-width="1"/><line x1="66" y1="158.0" x2="654" y2="158.0" stroke="#e3e7ec" stroke-width="1"/><line x1="66" y1="106.0" x2="654" y2="106.0" stroke="#e3e7ec" stroke-width="1"/><line x1="66" y1="54.0" x2="654" y2="54.0" stroke="#e3e7ec" stroke-width="1"/>
  
  <line x1="66" y1="54" x2="66" y2="366" stroke="#1d6f42" stroke-width="2"/>
  <line x1="654" y1="54" x2="654" y2="366" stroke="#b06d16" stroke-width="2"/>
  <line x1="66" y1="366" x2="654" y2="366" stroke="#17181c" stroke-width="1.5"/>
  <text x="56" y="370.0" text-anchor="end" font-size="12" fill="#1d6f42">0.69</text><text x="56" y="318.0" text-anchor="end" font-size="12" fill="#1d6f42">0.74</text><text x="56" y="266.0" text-anchor="end" font-size="12" fill="#1d6f42">0.79</text><text x="56" y="214.0" text-anchor="end" font-size="12" fill="#1d6f42">0.84</text><text x="56" y="162.0" text-anchor="end" font-size="12" fill="#1d6f42">0.90</text><text x="56" y="110.0" text-anchor="end" font-size="12" fill="#1d6f42">0.95</text><text x="56" y="58.0" text-anchor="end" font-size="12" fill="#1d6f42">1.00</text><text x="664" y="370.0" font-size="12" fill="#b06d16">0%</text><text x="664" y="292.0" font-size="12" fill="#b06d16">25%</text><text x="664" y="214.0" font-size="12" fill="#b06d16">50%</text><text x="664" y="136.0" font-size="12" fill="#b06d16">75%</text><text x="664" y="58.0" font-size="12" fill="#b06d16">100%</text>
  <polyline points="66.0,54.0 213.0,232.6 360.0,311.7 507.0,347.0 654.0,362.2" fill="none" stroke="#b06d16" stroke-width="2.5"
            stroke-dasharray="7 4"/>
  <polyline points="66.0,345.6 213.0,210.7 360.0,135.5 507.0,93.1 654.0,69.2" fill="none" stroke="#1d6f42" stroke-width="3"/>
  <circle cx="66.0" cy="345.6" r="5" fill="#1d6f42"/><circle cx="66.0" cy="54.0" r="5" fill="#b06d16"/><text x="66.0" y="332.6" text-anchor="start" font-size="12.5" font-weight="700" fill="#1d6f42">0.71</text><text x="66.0" y="75.0" text-anchor="start" font-size="12" fill="#b06d16">100%</text><text x="66.0" y="388.0" text-anchor="middle" font-size="13" fill="#17181c">none</text><text x="66.0" y="405.0" text-anchor="middle" font-size="11" fill="#5b6570">65,725</text><circle cx="213.0" cy="210.7" r="5" fill="#1d6f42"/><circle cx="213.0" cy="232.6" r="5" fill="#b06d16"/><text x="213.0" y="197.7" text-anchor="middle" font-size="12.5" font-weight="700" fill="#1d6f42">0.84</text><text x="213.0" y="253.6" text-anchor="middle" font-size="12" fill="#b06d16">43%</text><text x="213.0" y="388.0" text-anchor="middle" font-size="13" fill="#17181c">0.60</text><text x="213.0" y="405.0" text-anchor="middle" font-size="11" fill="#5b6570">28,097</text><circle cx="360.0" cy="135.5" r="5" fill="#1d6f42"/><circle cx="360.0" cy="311.7" r="5" fill="#b06d16"/><text x="360.0" y="122.5" text-anchor="middle" font-size="12.5" font-weight="700" fill="#1d6f42">0.92</text><text x="360.0" y="332.7" text-anchor="middle" font-size="12" fill="#b06d16">17%</text><text x="360.0" y="388.0" text-anchor="middle" font-size="13" fill="#17181c">0.70</text><text x="360.0" y="405.0" text-anchor="middle" font-size="11" fill="#5b6570">11,435</text><circle cx="507.0" cy="93.1" r="5" fill="#1d6f42"/><circle cx="507.0" cy="347.0" r="5" fill="#b06d16"/><text x="507.0" y="80.1" text-anchor="middle" font-size="12.5" font-weight="700" fill="#1d6f42">0.96</text><text x="507.0" y="368.0" text-anchor="middle" font-size="12" fill="#b06d16">6%</text><text x="507.0" y="388.0" text-anchor="middle" font-size="13" fill="#17181c">0.80</text><text x="507.0" y="405.0" text-anchor="middle" font-size="11" fill="#5b6570">3,995</text><circle cx="654.0" cy="69.2" r="5" fill="#1d6f42"/><circle cx="654.0" cy="362.2" r="5" fill="#b06d16"/><text x="654.0" y="56.2" text-anchor="end" font-size="12.5" font-weight="700" fill="#1d6f42">0.98</text><text x="654.0" y="383.2" text-anchor="end" font-size="12" fill="#b06d16">1%</text><text x="654.0" y="388.0" text-anchor="middle" font-size="13" fill="#17181c">0.90</text><text x="654.0" y="405.0" text-anchor="middle" font-size="11" fill="#5b6570">794</text>
  <text x="66" y="24" font-size="15" font-weight="700" fill="#17181c">Two compounds at one target</text>
  <text x="66" y="46" font-size="13" font-weight="700" fill="#1d6f42">Accuracy</text>
  <text x="654" y="46" text-anchor="end" font-size="13" font-weight="700"
        fill="#b06d16">Comparisons still answered</text>
  <text x="360.0" y="420" text-anchor="middle" font-size="13" fill="#17181c">
    Prediction strength cutoff</text>
</svg>