<svg xmlns="http://www.w3.org/2000/svg" viewBox="0 0 720 400" width="100%"
     role="img" font-family="-apple-system,BlinkMacSystemFont,Segoe UI,Helvetica,Arial,sans-serif"
     aria-label="Accuracy rises from 0.710 to 0.985 as the prediction
     strength cutoff rises, while the share of comparisons still answered falls from
     100 percent to 1 percent.">
  <line x1="66" y1="338.0" x2="654" y2="338.0" stroke="#e3e7ec" stroke-width="1"/><line x1="66" y1="286.0" x2="654" y2="286.0" stroke="#e3e7ec" stroke-width="1"/><line x1="66" y1="234.0" x2="654" y2="234.0" stroke="#e3e7ec" stroke-width="1"/><line x1="66" y1="182.0" x2="654" y2="182.0" stroke="#e3e7ec" stroke-width="1"/><line x1="66" y1="130.0" x2="654" y2="130.0" stroke="#e3e7ec" stroke-width="1"/><line x1="66" y1="78.0" x2="654" y2="78.0" stroke="#e3e7ec" stroke-width="1"/><line x1="66" y1="26.0" x2="654" y2="26.0" stroke="#e3e7ec" stroke-width="1"/>
  <line x1="66" y1="26" x2="66" y2="338" stroke="#1d6f42" stroke-width="2"/>
  <line x1="654" y1="26" x2="654" y2="338" stroke="#b06d16" stroke-width="2"/>
  <line x1="66" y1="338" x2="654" y2="338" stroke="#17181c" stroke-width="1.5"/>
  <text x="56" y="342.0" text-anchor="end" font-size="12" fill="#1d6f42">0.69</text><text x="56" y="290.0" text-anchor="end" font-size="12" fill="#1d6f42">0.74</text><text x="56" y="238.0" text-anchor="end" font-size="12" fill="#1d6f42">0.79</text><text x="56" y="186.0" text-anchor="end" font-size="12" fill="#1d6f42">0.84</text><text x="56" y="134.0" text-anchor="end" font-size="12" fill="#1d6f42">0.90</text><text x="56" y="82.0" text-anchor="end" font-size="12" fill="#1d6f42">0.95</text><text x="56" y="30.0" text-anchor="end" font-size="12" fill="#1d6f42">1.00</text><text x="664" y="342.0" font-size="12" fill="#b06d16">0%</text><text x="664" y="264.0" font-size="12" fill="#b06d16">25%</text><text x="664" y="186.0" font-size="12" fill="#b06d16">50%</text><text x="664" y="108.0" font-size="12" fill="#b06d16">75%</text><text x="664" y="30.0" font-size="12" fill="#b06d16">100%</text>
  <polyline points="66.0,26.0 213.0,204.6 360.0,283.7 507.0,319.0 654.0,334.2" fill="none" stroke="#b06d16" stroke-width="2.5"
            stroke-dasharray="7 4"/>
  <polyline points="66.0,317.6 213.0,182.7 360.0,107.5 507.0,65.1 654.0,41.2" fill="none" stroke="#1d6f42" stroke-width="3"/>
  <circle cx="66.0" cy="317.6" r="5" fill="#1d6f42"/><circle cx="66.0" cy="26.0" r="5" fill="#b06d16"/><text x="66.0" y="304.6" text-anchor="start" font-size="12.5" font-weight="700" fill="#1d6f42">0.710</text><text x="66.0" y="47.0" text-anchor="start" font-size="12" fill="#b06d16">100%</text><text x="66.0" y="360.0" text-anchor="middle" font-size="13" fill="#17181c">none</text><text x="66.0" y="377.0" text-anchor="middle" font-size="11" fill="#5b6570">65,725</text><circle cx="213.0" cy="182.7" r="5" fill="#1d6f42"/><circle cx="213.0" cy="204.6" r="5" fill="#b06d16"/><text x="213.0" y="169.7" text-anchor="middle" font-size="12.5" font-weight="700" fill="#1d6f42">0.844</text><text x="213.0" y="225.6" text-anchor="middle" font-size="12" fill="#b06d16">43%</text><text x="213.0" y="360.0" text-anchor="middle" font-size="13" fill="#17181c">0.60</text><text x="213.0" y="377.0" text-anchor="middle" font-size="11" fill="#5b6570">28,097</text><circle cx="360.0" cy="107.5" r="5" fill="#1d6f42"/><circle cx="360.0" cy="283.7" r="5" fill="#b06d16"/><text x="360.0" y="94.5" text-anchor="middle" font-size="12.5" font-weight="700" fill="#1d6f42">0.919</text><text x="360.0" y="304.7" text-anchor="middle" font-size="12" fill="#b06d16">17%</text><text x="360.0" y="360.0" text-anchor="middle" font-size="13" fill="#17181c">0.70</text><text x="360.0" y="377.0" text-anchor="middle" font-size="11" fill="#5b6570">11,435</text><circle cx="507.0" cy="65.1" r="5" fill="#1d6f42"/><circle cx="507.0" cy="319.0" r="5" fill="#b06d16"/><text x="507.0" y="52.1" text-anchor="middle" font-size="12.5" font-weight="700" fill="#1d6f42">0.961</text><text x="507.0" y="340.0" text-anchor="middle" font-size="12" fill="#b06d16">6%</text><text x="507.0" y="360.0" text-anchor="middle" font-size="13" fill="#17181c">0.80</text><text x="507.0" y="377.0" text-anchor="middle" font-size="11" fill="#5b6570">3,995</text><circle cx="654.0" cy="41.2" r="5" fill="#1d6f42"/><circle cx="654.0" cy="334.2" r="5" fill="#b06d16"/><text x="654.0" y="28.2" text-anchor="end" font-size="12.5" font-weight="700" fill="#1d6f42">0.985</text><text x="654.0" y="355.2" text-anchor="end" font-size="12" fill="#b06d16">1%</text><text x="654.0" y="360.0" text-anchor="middle" font-size="13" fill="#17181c">0.90</text><text x="654.0" y="377.0" text-anchor="middle" font-size="11" fill="#5b6570">794</text>
  <text x="66" y="18" font-size="13" font-weight="700" fill="#1d6f42">Accuracy</text>
  <text x="654" y="18" text-anchor="end" font-size="13" font-weight="700"
        fill="#b06d16">Comparisons still answered</text>
  <text x="360.0" y="392" text-anchor="middle" font-size="13" fill="#17181c">
    Prediction strength cutoff</text>
</svg>